<mxfile host="app.diagrams.net" modified="2021-12-26T10:42:12.338Z" agent="5.0 (Windows NT 10.0; Win64; x64) AppleWebKit/537.36 (KHTML, like Gecko) Chrome/96.0.4664.110 Safari/537.36" etag="PJ_UYJZ98p5QP7Zosc9i" version="16.1.0" type="github">
  <diagram id="7w544GJsyX862CSMcGT0" name="第 1 页">
    <mxGraphModel dx="1397" dy="1972" grid="0" gridSize="10" guides="1" tooltips="1" connect="1" arrows="1" fold="1" page="0" pageScale="1" pageWidth="827" pageHeight="1169" background="none" math="0" shadow="1">
      <root>
        <mxCell id="0" />
        <mxCell id="1" parent="0" />
        <mxCell id="88eacg_ynGGg2qezlieB-27" value="" style="group;" vertex="1" connectable="0" parent="1">
          <mxGeometry x="770" y="-986" width="190" height="120" as="geometry" />
        </mxCell>
        <mxCell id="88eacg_ynGGg2qezlieB-2" value="报表服务" style="rounded=1;whiteSpace=wrap;html=1;verticalAlign=top;" vertex="1" parent="88eacg_ynGGg2qezlieB-27">
          <mxGeometry y="10" width="190" height="120" as="geometry" />
        </mxCell>
        <mxCell id="88eacg_ynGGg2qezlieB-24" value="报表信息缓存" style="shape=cylinder3;whiteSpace=wrap;html=1;boundedLbl=1;backgroundOutline=1;size=15;fillColor=#f5f5f5;fontColor=#333333;strokeColor=#666666;" vertex="1" parent="88eacg_ynGGg2qezlieB-27">
          <mxGeometry x="110" y="40" width="60" height="80" as="geometry" />
        </mxCell>
        <mxCell id="88eacg_ynGGg2qezlieB-63" value="" style="rounded=0;whiteSpace=wrap;html=1;dashed=1;strokeWidth=2;" vertex="1" parent="88eacg_ynGGg2qezlieB-27">
          <mxGeometry x="6" y="35" width="70" height="90" as="geometry" />
        </mxCell>
        <mxCell id="88eacg_ynGGg2qezlieB-61" value="应用列表缓存" style="shape=document;whiteSpace=wrap;html=1;boundedLbl=1;fillColor=#e1d5e7;strokeColor=#9673a6;" vertex="1" parent="88eacg_ynGGg2qezlieB-27">
          <mxGeometry x="11" y="82" width="60" height="40" as="geometry" />
        </mxCell>
        <mxCell id="88eacg_ynGGg2qezlieB-62" value="数据源缓存" style="shape=document;whiteSpace=wrap;html=1;boundedLbl=1;fillColor=#ffe6cc;strokeColor=#d79b00;" vertex="1" parent="88eacg_ynGGg2qezlieB-27">
          <mxGeometry x="11" y="39" width="60" height="40" as="geometry" />
        </mxCell>
        <mxCell id="88eacg_ynGGg2qezlieB-4" value="" style="endArrow=classic;html=1;rounded=0;entryX=0.5;entryY=0;entryDx=0;entryDy=0;exitX=0.5;exitY=1;exitDx=0;exitDy=0;" edge="1" parent="1" source="88eacg_ynGGg2qezlieB-17" target="88eacg_ynGGg2qezlieB-2">
          <mxGeometry relative="1" as="geometry">
            <mxPoint x="562" y="-910" as="sourcePoint" />
            <mxPoint x="672" y="-910.5" as="targetPoint" />
          </mxGeometry>
        </mxCell>
        <mxCell id="88eacg_ynGGg2qezlieB-5" value="" style="shape=message;html=1;outlineConnect=0;" vertex="1" parent="88eacg_ynGGg2qezlieB-4">
          <mxGeometry width="20" height="14" relative="1" as="geometry">
            <mxPoint x="-10" y="-7" as="offset" />
          </mxGeometry>
        </mxCell>
        <mxCell id="88eacg_ynGGg2qezlieB-74" value="bind" style="edgeLabel;html=1;align=center;verticalAlign=middle;resizable=0;points=[];" vertex="1" connectable="0" parent="88eacg_ynGGg2qezlieB-4">
          <mxGeometry x="0.3199" relative="1" as="geometry">
            <mxPoint as="offset" />
          </mxGeometry>
        </mxCell>
        <mxCell id="88eacg_ynGGg2qezlieB-28" value="" style="group;" vertex="1" connectable="0" parent="1">
          <mxGeometry x="770" y="-1156" width="190" height="99" as="geometry" />
        </mxCell>
        <mxCell id="88eacg_ynGGg2qezlieB-17" value="统一数据源" style="rounded=1;whiteSpace=wrap;html=1;verticalAlign=top;" vertex="1" parent="88eacg_ynGGg2qezlieB-28">
          <mxGeometry width="190" height="80" as="geometry" />
        </mxCell>
        <mxCell id="88eacg_ynGGg2qezlieB-18" value="数据源" style="shape=document;whiteSpace=wrap;html=1;boundedLbl=1;fillColor=#ffe6cc;strokeColor=#d79b00;" vertex="1" parent="88eacg_ynGGg2qezlieB-28">
          <mxGeometry x="21" y="26.666666666666664" width="60" height="35.55555555555556" as="geometry" />
        </mxCell>
        <mxCell id="88eacg_ynGGg2qezlieB-19" value="应用列表" style="shape=document;whiteSpace=wrap;html=1;boundedLbl=1;fillColor=#e1d5e7;strokeColor=#9673a6;" vertex="1" parent="88eacg_ynGGg2qezlieB-28">
          <mxGeometry x="110" y="26.666666666666664" width="60" height="35.55555555555556" as="geometry" />
        </mxCell>
        <mxCell id="88eacg_ynGGg2qezlieB-76" value="Dapr Secrets" style="ellipse;shape=cloud;whiteSpace=wrap;html=1;dashed=1;strokeWidth=2;fillColor=#bac8d3;strokeColor=#23445d;" vertex="1" parent="88eacg_ynGGg2qezlieB-28">
          <mxGeometry x="-36" y="55" width="106" height="40" as="geometry" />
        </mxCell>
        <mxCell id="88eacg_ynGGg2qezlieB-39" value="" style="group;" vertex="1" connectable="0" parent="1">
          <mxGeometry x="140" y="-978" width="190" height="140" as="geometry" />
        </mxCell>
        <mxCell id="88eacg_ynGGg2qezlieB-53" value="" style="group" vertex="1" connectable="0" parent="88eacg_ynGGg2qezlieB-39">
          <mxGeometry y="5" width="190" height="120" as="geometry" />
        </mxCell>
        <mxCell id="88eacg_ynGGg2qezlieB-40" value="报表服务" style="rounded=1;whiteSpace=wrap;html=1;verticalAlign=top;" vertex="1" parent="88eacg_ynGGg2qezlieB-53">
          <mxGeometry width="190" height="120" as="geometry" />
        </mxCell>
        <mxCell id="88eacg_ynGGg2qezlieB-52" value="" style="rounded=0;whiteSpace=wrap;html=1;dashed=1;strokeWidth=2;" vertex="1" parent="88eacg_ynGGg2qezlieB-53">
          <mxGeometry x="5" y="25" width="70" height="90" as="geometry" />
        </mxCell>
        <mxCell id="88eacg_ynGGg2qezlieB-41" value="数据源缓存" style="shape=document;whiteSpace=wrap;html=1;boundedLbl=1;fillColor=#ffe6cc;strokeColor=#d79b00;" vertex="1" parent="88eacg_ynGGg2qezlieB-53">
          <mxGeometry x="10" y="30" width="60" height="40" as="geometry" />
        </mxCell>
        <mxCell id="88eacg_ynGGg2qezlieB-42" value="应用列表缓存" style="shape=document;whiteSpace=wrap;html=1;boundedLbl=1;fillColor=#e1d5e7;strokeColor=#9673a6;" vertex="1" parent="88eacg_ynGGg2qezlieB-53">
          <mxGeometry x="10" y="75" width="60" height="40" as="geometry" />
        </mxCell>
        <mxCell id="88eacg_ynGGg2qezlieB-43" value="报表信息缓存" style="shape=cylinder3;whiteSpace=wrap;html=1;boundedLbl=1;backgroundOutline=1;size=15;fillColor=#f5f5f5;fontColor=#333333;strokeColor=#666666;" vertex="1" parent="88eacg_ynGGg2qezlieB-53">
          <mxGeometry x="110" y="30" width="60" height="80" as="geometry" />
        </mxCell>
        <mxCell id="88eacg_ynGGg2qezlieB-44" value="" style="group;" vertex="1" connectable="0" parent="1">
          <mxGeometry x="140" y="-1155" width="190" height="80" as="geometry" />
        </mxCell>
        <mxCell id="88eacg_ynGGg2qezlieB-45" value="统一数据源" style="rounded=1;whiteSpace=wrap;html=1;verticalAlign=top;" vertex="1" parent="88eacg_ynGGg2qezlieB-44">
          <mxGeometry width="190" height="80" as="geometry" />
        </mxCell>
        <mxCell id="88eacg_ynGGg2qezlieB-46" value="数据源" style="shape=document;whiteSpace=wrap;html=1;boundedLbl=1;fillColor=#ffe6cc;strokeColor=#d79b00;" vertex="1" parent="88eacg_ynGGg2qezlieB-44">
          <mxGeometry x="21" y="26.666666666666664" width="60" height="35.55555555555556" as="geometry" />
        </mxCell>
        <mxCell id="88eacg_ynGGg2qezlieB-47" value="应用列表" style="shape=document;whiteSpace=wrap;html=1;boundedLbl=1;fillColor=#e1d5e7;strokeColor=#9673a6;" vertex="1" parent="88eacg_ynGGg2qezlieB-44">
          <mxGeometry x="110" y="26.666666666666664" width="60" height="35.55555555555556" as="geometry" />
        </mxCell>
        <mxCell id="88eacg_ynGGg2qezlieB-48" value="Dapr 应用" style="shape=flexArrow;endArrow=classic;html=1;rounded=0;endWidth=56;endSize=18.33;width=40;fillColor=#fad9d5;strokeColor=#ae4132;" edge="1" parent="1">
          <mxGeometry width="50" height="50" relative="1" as="geometry">
            <mxPoint x="448" y="-910.5" as="sourcePoint" />
            <mxPoint x="646" y="-910.5" as="targetPoint" />
          </mxGeometry>
        </mxCell>
        <mxCell id="88eacg_ynGGg2qezlieB-49" value="" style="endArrow=classic;startArrow=classic;html=1;rounded=0;entryX=0.5;entryY=1;entryDx=0;entryDy=0;exitX=0.5;exitY=0;exitDx=0;exitDy=0;" edge="1" parent="1" source="88eacg_ynGGg2qezlieB-40" target="88eacg_ynGGg2qezlieB-45">
          <mxGeometry width="50" height="50" relative="1" as="geometry">
            <mxPoint x="117" y="-988" as="sourcePoint" />
            <mxPoint x="167" y="-1038" as="targetPoint" />
          </mxGeometry>
        </mxCell>
        <mxCell id="88eacg_ynGGg2qezlieB-51" value="长连接" style="edgeLabel;html=1;align=center;verticalAlign=middle;resizable=0;points=[];" vertex="1" connectable="0" parent="88eacg_ynGGg2qezlieB-49">
          <mxGeometry x="-0.1251" y="-3" relative="1" as="geometry">
            <mxPoint x="4" y="-14" as="offset" />
          </mxGeometry>
        </mxCell>
        <mxCell id="88eacg_ynGGg2qezlieB-77" value="" style="verticalLabelPosition=bottom;verticalAlign=top;html=1;shape=mxgraph.flowchart.parallel_mode;pointerEvents=1;dashed=1;strokeWidth=2;" vertex="1" parent="1">
          <mxGeometry x="24" y="-827" width="434" height="49" as="geometry" />
        </mxCell>
        <mxCell id="88eacg_ynGGg2qezlieB-78" value="" style="verticalLabelPosition=bottom;verticalAlign=top;html=1;shape=mxgraph.flowchart.parallel_mode;pointerEvents=1;dashed=1;strokeWidth=2;" vertex="1" parent="1">
          <mxGeometry x="656" y="-828" width="434" height="49" as="geometry" />
        </mxCell>
        <mxCell id="88eacg_ynGGg2qezlieB-79" value="业务系统" style="rounded=1;whiteSpace=wrap;html=1;verticalAlign=top;dashed=1;strokeWidth=2;fillColor=#b0e3e6;strokeColor=#0e8088;" vertex="1" parent="1">
          <mxGeometry x="120" y="-709" width="242" height="120.5" as="geometry" />
        </mxCell>
        <mxCell id="88eacg_ynGGg2qezlieB-82" value="业务系统" style="rounded=1;whiteSpace=wrap;html=1;verticalAlign=top;dashed=1;strokeWidth=2;fillColor=#b0e3e6;strokeColor=#0e8088;" vertex="1" parent="1">
          <mxGeometry x="752" y="-709" width="242" height="120.5" as="geometry" />
        </mxCell>
        <mxCell id="88eacg_ynGGg2qezlieB-83" value="" style="shape=flexArrow;endArrow=classic;html=1;endWidth=50;endSize=9.63;width=26;" edge="1" parent="1">
          <mxGeometry width="50" height="50" relative="1" as="geometry">
            <mxPoint x="241" y="-716" as="sourcePoint" />
            <mxPoint x="240.5" y="-771" as="targetPoint" />
          </mxGeometry>
        </mxCell>
        <mxCell id="88eacg_ynGGg2qezlieB-84" value="" style="shape=flexArrow;endArrow=classic;html=1;endWidth=50;endSize=9.63;width=26;" edge="1" parent="1">
          <mxGeometry width="50" height="50" relative="1" as="geometry">
            <mxPoint x="873" y="-716" as="sourcePoint" />
            <mxPoint x="872.5" y="-771" as="targetPoint" />
          </mxGeometry>
        </mxCell>
        <mxCell id="88eacg_ynGGg2qezlieB-85" value="报表操作" style="shape=tape;whiteSpace=wrap;html=1;strokeWidth=2;size=0.19;dashed=1;" vertex="1" parent="1">
          <mxGeometry x="278" y="-684" width="76" height="49" as="geometry" />
        </mxCell>
        <mxCell id="88eacg_ynGGg2qezlieB-86" value="报表操作" style="shape=tape;whiteSpace=wrap;html=1;strokeWidth=2;size=0.19;dashed=1;" vertex="1" parent="1">
          <mxGeometry x="908" y="-688" width="76" height="49" as="geometry" />
        </mxCell>
      </root>
    </mxGraphModel>
  </diagram>
</mxfile>
